<svg id="Layer_1" data-name="Layer 1" xmlns="http://www.w3.org/2000/svg" viewBox="0 0 250.14 92.56"><defs><style>.cls-1{fill:#fff;}.cls-2{fill:#f91155;}.cls-3{fill:#06ca99;}.cls-4{fill:#005bfd;}</style></defs><title>logo_Ozon_Masters_09-04 outline</title><path class="cls-1" d="M151.22,24a13.87,13.87,0,0,1-27.74,0,13.87,13.87,0,0,1,27.74,0Zm-24.55,0c0,6.35,4.45,10.91,10.68,10.91S148,30.39,148,24s-4.41-10.9-10.68-10.9S126.67,17.7,126.67,24Z"/><path class="cls-1" d="M167.86,34.76v2.58h-14.7V34.91l10.6-12.58h-10V19.79H167.1v2.43L156.5,34.76Z"/><path class="cls-1" d="M187.85,28.56a9.5,9.5,0,0,1-19,0,9.5,9.5,0,0,1,19,0Zm-16.11,0a6.61,6.61,0,1,0,13.22,0,6.61,6.61,0,1,0-13.22,0Z"/><path class="cls-1" d="M207.31,26.66V37.34h-2.74V27c0-3.57-1.9-5.09-4.71-5.09-3,0-5.62,1.83-5.62,7.3v8.09H191.5V19.79h2.74v3.38h.07a6.4,6.4,0,0,1,6.27-4C204.5,19.22,207.31,21.38,207.31,26.66Z"/><path class="cls-1" d="M153.88,82.23h-3.12l-4.94-20.94h-.07L139.25,78H137l-6.5-16.68h-.07l-4.94,20.94h-3.12l6.5-26.6h2.43l6.8,17.78h.08L145,55.63h2.43Z"/><path class="cls-1" d="M155.36,73.45c0-5.81,3.88-9.35,8.71-9.35a7.17,7.17,0,0,1,6.64,3.69h.08V64.67h2.73V82.23h-2.73V79.11h-.08a7.18,7.18,0,0,1-6.64,3.69C159.24,82.8,155.36,79.26,155.36,73.45Zm15.58,0c0-3.88-2.51-6.65-6.34-6.65s-6.35,2.77-6.35,6.65,2.51,6.65,6.35,6.65S170.94,77.33,170.94,73.45Z"/><path class="cls-1" d="M176.6,80.74l1.33-2.43a11.17,11.17,0,0,0,6,1.9c2.39,0,3.49-.95,3.49-2.31,0-1.14-.8-1.9-2.39-2.63l-3.27-1.55c-2.55-1.18-3.8-2.78-3.8-4.91,0-3.07,2.4-4.71,6-4.71A14.51,14.51,0,0,1,190,65.47L188.8,67.9A11.37,11.37,0,0,0,184,66.69c-2,0-3,.68-3,2,0,1.18.8,1.86,2.5,2.66l3.2,1.48c2.24,1.07,3.76,2.43,3.76,4.94,0,3.34-2.59,5-6.54,5A13.83,13.83,0,0,1,176.6,80.74Z"/><path class="cls-1" d="M198.07,67V77.4c0,1.56.76,2.32,2.21,2.32h.95v2.54h-1.45c-2.77,0-4.44-1.48-4.44-4.33V67H192V64.67h3.38v-7h2.73v7H202V67Z"/><path class="cls-1" d="M220.42,73.34v.49H205.83c.07,3.88,2.62,6.31,6.3,6.31a7.18,7.18,0,0,0,6-3.35l2,1.79a9.16,9.16,0,0,1-7.94,4.22c-5.55,0-9.12-3.76-9.12-9.31s3.57-9.39,8.93-9.39C217.72,64.1,220.42,68.13,220.42,73.34Zm-14.48-1.6h11.51c-.26-3.19-2.24-5.09-5.62-5.09A5.56,5.56,0,0,0,205.94,71.74Z"/><path class="cls-1" d="M233.15,67.29h-.53c-3.73,0-5.82,2.36-5.82,6.69v8.25h-2.73V64.67h2.73v4h.08a5.86,5.86,0,0,1,5.81-4.48h.46Z"/><path class="cls-1" d="M233.64,80.74,235,78.31a11.16,11.16,0,0,0,6,1.9c2.4,0,3.5-.95,3.5-2.31,0-1.14-.8-1.9-2.39-2.63l-3.27-1.55c-2.55-1.18-3.8-2.78-3.8-4.91,0-3.07,2.39-4.71,6-4.71A14.55,14.55,0,0,1,247,65.47l-1.18,2.43A11.38,11.38,0,0,0,241,66.69c-2,0-3,.68-3,2,0,1.18.79,1.86,2.5,2.66l3.19,1.48c2.25,1.07,3.76,2.43,3.76,4.94,0,3.34-2.58,5-6.53,5A13.83,13.83,0,0,1,233.64,80.74Z"/><path class="cls-1" d="M23.88,1A21.17,21.17,0,1,0,45,22.17,21.17,21.17,0,0,0,23.88,1Zm0,32.46A11.29,11.29,0,1,1,35.17,22.17,11.3,11.3,0,0,1,23.88,33.46Z"/><path class="cls-2" d="M80.55,1C65,1,50.49,8.93,50.49,22.18S65,43.35,80.55,43.35s30.05-8,30.05-21.17S96.12,1,80.55,1Z"/><path class="cls-3" d="M45,70.39A21.17,21.17,0,1,0,23.88,91.56,21.16,21.16,0,0,0,45,70.39Z"/><path class="cls-4" d="M80.55,81.68c-5.91,0-11.54-1.46-15.45-4-4.73-3.09-4.73-6.25-4.73-7.29a6.79,6.79,0,0,1,1.05-3.69,11.73,11.73,0,0,1,3.69-3.58c3.91-2.55,9.54-4,15.44-4s11.55,1.46,15.46,4c4.72,3.09,4.72,6.24,4.72,7.27a7,7,0,0,1-1,3.73A11.82,11.82,0,0,1,96,77.67c-3.9,2.55-9.54,4-15.46,4m0,9.88c15.57,0,30.05-7.93,30.05-21.18s-14.48-21.17-30-21.17-30.06,8-30.06,21.17S65,91.56,80.55,91.56Z"/></svg>